<svg xmlns="http://www.w3.org/2000/svg" width="1400" height="420" viewBox="0 0 1400 420">
<defs>
  <linearGradient id="bg" x1="0" y1="0" x2="1" y2="1">
    <stop offset="0" stop-color="#050816"/>
    <stop offset="0.45" stop-color="#0B1025"/>
    <stop offset="1" stop-color="#160B2F"/>
  </linearGradient>
  <radialGradient id="glow" cx="50%" cy="45%" r="60%">
    <stop offset="0" stop-color="#7C3AED" stop-opacity=".42"/>
    <stop offset="1" stop-color="#7C3AED" stop-opacity="0"/>
  </radialGradient>
  <filter id="blur"><feGaussianBlur stdDeviation="12"/></filter>
  <filter id="soft"><feDropShadow dx="0" dy="0" stdDeviation="8" flood-color="#22D3EE" flood-opacity=".35"/></filter>
</defs>
<rect width="1400" height="420" fill="url(#bg)"/>
<rect width="1400" height="420" fill="url(#glow)"/>
<g opacity=".35">
  <circle cx="110" cy="75" r="2" fill="#fff"/><circle cx="210" cy="150" r="1.5" fill="#A78BFA"/>
  <circle cx="1260" cy="90" r="2" fill="#22D3EE"/><circle cx="1180" cy="210" r="1.5" fill="#fff"/>
  <circle cx="1020" cy="55" r="1.7" fill="#A78BFA"/><circle cx="330" cy="310" r="1.6" fill="#22D3EE"/>
</g>
<g transform="translate(110,80)">
  <rect x="0" y="0" width="430" height="255" rx="24" fill="#08111F" stroke="#334155"/>
  <rect x="28" y="28" width="374" height="176" rx="14" fill="#0F172A" stroke="#1E293B"/>
  <rect x="155" y="222" width="120" height="14" rx="7" fill="#334155"/>
  <g font-family="monospace" font-size="18">
    <text x="52" y="70" fill="#22D3EE">const</text>
    <text x="112" y="70" fill="#F8FAFC">developer = &#123;</text>
    <text x="72" y="105" fill="#A78BFA">name:</text>
    <text x="150" y="105" fill="#F8FAFC">"Harshit",</text>
    <text x="72" y="140" fill="#A78BFA">stack:</text>
    <text x="150" y="140" fill="#F8FAFC">["React","Node","TS"],</text>
    <text x="72" y="175" fill="#A78BFA">focus:</text>
    <text x="150" y="175" fill="#F8FAFC">"Scalable systems"</text>
    <text x="52" y="202" fill="#F8FAFC">&#125;;</text>
  </g>
</g>
<g transform="translate(610,85)">
  <text x="0" y="60" font-family="Arial, sans-serif" font-size="52" font-weight="700" fill="#F8FAFC">Harshit Bhardwaj</text>
  <text x="0" y="105" font-family="Arial, sans-serif" font-size="24" fill="#A78BFA">FULL-STACK DEVELOPER</text>
  <text x="0" y="150" font-family="Arial, sans-serif" font-size="21" fill="#CBD5E1">React • Node.js • TypeScript • Real-Time Systems</text>
  <text x="0" y="185" font-family="Arial, sans-serif" font-size="21" fill="#CBD5E1">Kafka • Redis • Docker • Microservices</text>
  <g transform="translate(0,225)">
    <rect width="190" height="46" rx="23" fill="#7C3AED"/>
    <text x="95" y="30" text-anchor="middle" font-family="Arial" font-size="17" font-weight="700" fill="white">BUILD. SHIP. SCALE.</text>
  </g>
</g>
<g opacity=".55" filter="url(#soft)">
  <circle cx="560" cy="120" r="6" fill="#22D3EE"/>
  <circle cx="570" cy="305" r="5" fill="#7C3AED"/>
  <circle cx="1120" cy="320" r="4" fill="#22D3EE"/>
</g>
</svg>